<?xml version="1.0" encoding="iso-8859-1"?>
<!-- Generator: Adobe Illustrator 19.0.0, SVG Export Plug-In . SVG Version: 6.00 Build 0)  -->
<svg version="1.1" id="Layer_1" xmlns="http://www.w3.org/2000/svg" xmlns:xlink="http://www.w3.org/1999/xlink" x="0px" y="0px"
	 viewBox="0 0 344.111 344.111" style="enable-background:new 0 0 344.111 344.111;" xml:space="preserve">
<g>
	<g>
		<g>
			<path d="M317.991,61.444H130.395c-14.4,0-26.12,11.72-26.12,26.12v8.22l-87.624,34.08c-6.476,2.516-11.596,7.432-14.412,13.832
				c-2.82,6.404-2.98,13.492-0.46,19.972l39.804,102.348c2.516,6.476,7.432,11.596,13.832,14.412
				c3.388,1.492,6.972,2.24,10.552,2.24c3.184,0,6.372-0.592,9.42-1.776l145.916-56.748c0.388-0.152,0.72-0.38,1.012-0.648h95.676
				c14.4,0,26.12-11.72,26.12-26.12V87.564C344.111,73.164,332.391,61.444,317.991,61.444z M104.279,116.596v12.556h-0.004
				l-78.816,31.6l-0.02-0.052c-2.508-6.436,0.696-13.716,7.14-16.228L104.279,116.596z M100.931,135.38l3.344-1.34v26.072
				l-3.276,1.316v-25.712C100.999,135.6,100.947,135.496,100.931,135.38z M96.615,163.188l-7.348,2.956l0.656-26.352l6.532-2.62
				v25.232C96.455,162.684,96.523,162.944,96.615,163.188z M85.335,141.632l-0.656,26.36l-9.572,3.848l0.336-26.244L85.335,141.632z
				 M62.807,150.664l8.072-3.236l-0.332,26.244l-8.68,3.492l1.004-26.108C62.879,150.92,62.823,150.796,62.807,150.664z
				 M58.267,152.484l-1.02,26.54l-7.984,3.208l1.02-26.548L58.267,152.484z M45.667,157.536l-1.02,26.556l-8.26,3.624l2.364-27.408
				L45.667,157.536z M34.059,162.192l-1.328,17.26l-5.628-14.468L34.059,162.192z M73.035,274.848
				c-4.872,1.884-10.2,1.76-15.012-0.352c-4.816-2.12-8.512-5.964-10.404-10.832L7.815,161.32c-1.888-4.868-1.764-10.2,0.352-15.016
				c2.12-4.816,5.964-8.512,10.832-10.4l85.272-33.164v8.992l-73.344,28.516c-8.776,3.416-13.14,13.328-9.72,22.1l11.156,28.688
				c0.348,0.896,1.208,1.448,2.116,1.448c0.172,0,0.8,0.032,0.956,0.032c0.284,0,0.568-0.056,0.848-0.168l67.988-27.34v32.372
				c0,14.4,11.72,26.12,26.12,26.12h41.44l-94.232,36.74c-6.44,2.492-13.728-0.7-16.228-7.14l-9.028-23.204
				c-0.456-1.164-1.776-1.752-2.936-1.292c-1.172,0.452-1.748,1.768-1.292,2.936l9.024,23.204
				c2.62,6.748,9.088,10.884,15.932,10.884c2.052,0,4.144-0.368,6.172-1.16l105.08-40.972h20.752L73.035,274.848z M337.623,197.376
				c0,10.828-8.808,19.632-19.632,19.632H130.395c-10.828,0-19.632-8.808-19.632-19.632V87.564c0-10.828,8.808-19.636,19.632-19.636
				h187.596c10.828,0,19.632,8.808,19.632,19.636V197.376z"/>
			<path d="M136.259,173.336c-0.012,1.256,0.996,2.28,2.248,2.292l87.78,0.824h0.024c1.244,0,2.256-1,2.272-2.248
				c0.012-1.256-0.996-2.28-2.248-2.296l-87.784-0.824C137.111,171.164,136.267,172.08,136.259,173.336z"/>
			<path d="M267.515,192.7c4.576,0,8.712-1.78,11.924-4.62c3.304,2.912,7.488,4.62,11.912,4.62c10.08,0,18.284-8.356,18.284-18.624
				s-8.204-18.624-18.284-18.624c-4.404,0-8.6,1.712-11.908,4.624c-3.212-2.844-7.352-4.624-11.928-4.624
				c-10.08,0-18.284,8.356-18.284,18.624C249.235,184.344,257.435,192.7,267.515,192.7z M282.471,163.424
				c2.476-2.16,5.604-3.432,8.88-3.432c7.576,0,13.744,6.32,13.744,14.084c0,7.764-6.168,14.084-13.744,14.084
				c-3.292,0-6.408-1.264-8.88-3.428c2.084-3.024,3.328-6.688,3.328-10.656C285.799,170.112,284.555,166.448,282.471,163.424z
				 M267.515,159.992c7.58,0,13.744,6.316,13.744,14.084c0,3.32-1.172,6.332-3.048,8.74c-0.148,0.076-0.304,0.128-0.432,0.236
				c-0.344,0.292-0.54,0.672-0.664,1.076c-2.48,2.484-5.864,4.028-9.596,4.028c-7.58,0-13.744-6.316-13.744-14.084
				C253.775,166.312,259.939,159.992,267.515,159.992z"/>
			<path d="M135.711,111.296h12.124c1.256,0,2.272-1.012,2.272-2.272s-1.012-2.272-2.272-2.272h-12.124
				c-1.256,0-2.272,1.012-2.272,2.272S134.455,111.296,135.711,111.296z"/>
			<path d="M171.795,111.296c1.256,0,2.272-1.012,2.272-2.272s-1.012-2.272-2.272-2.272h-12.116c-1.256,0-2.272,1.012-2.272,2.272
				s1.012,2.272,2.272,2.272H171.795z"/>
			<path d="M195.755,111.296c1.256,0,2.272-1.012,2.272-2.272s-1.012-2.272-2.272-2.272h-12.124c-1.256,0-2.272,1.012-2.272,2.272
				s1.012,2.272,2.272,2.272H195.755z"/>
			<path d="M219.715,111.296c1.256,0,2.272-1.012,2.272-2.272s-1.012-2.272-2.272-2.272h-12.116c-1.256,0-2.272,1.012-2.272,2.272
				s1.012,2.272,2.272,2.272H219.715z"/>
			<path d="M243.675,111.296c1.256,0,2.272-1.012,2.272-2.272s-1.012-2.272-2.272-2.272h-12.116c-1.256,0-2.272,1.012-2.272,2.272
				s1.012,2.272,2.272,2.272H243.675z"/>
			<path d="M267.639,111.296c1.256,0,2.272-1.012,2.272-2.272s-1.012-2.272-2.272-2.272h-12.124c-1.256,0-2.272,1.012-2.272,2.272
				s1.012,2.272,2.272,2.272H267.639z"/>
			<path d="M291.595,111.296c1.256,0,2.272-1.012,2.272-2.272s-1.012-2.272-2.272-2.272h-12.116c-1.256,0-2.272,1.012-2.272,2.272
				s1.012,2.272,2.272,2.272H291.595z"/>
			<path d="M315.559,111.296c1.256,0,2.272-1.012,2.272-2.272s-1.012-2.272-2.272-2.272h-12.12c-1.256,0-2.272,1.012-2.272,2.272
				s1.012,2.272,2.272,2.272H315.559z"/>
			<path d="M160.499,204.572h-22.632c-6.912,0-12.532-5.62-12.532-12.532v-83.676c0-1.256-1.016-2.272-2.272-2.272
				s-2.272,1.012-2.272,2.272v83.676c0,9.412,7.656,17.072,17.072,17.072h22.632c1.256,0,2.272-1.012,2.272-2.272
				S161.755,204.572,160.499,204.572z"/>
			<path d="M325.323,158.992c-1.256,0-2.272,1.012-2.272,2.272v30.78c0,6.912-5.62,12.532-12.532,12.532H193.671
				c-1.256,0-2.272,1.012-2.272,2.272s1.012,2.272,2.272,2.272h116.848c9.412,0,17.072-7.66,17.072-17.072v-30.784
				C327.591,160.008,326.579,158.992,325.323,158.992z"/>
			<path d="M310.519,75.824H137.867c-1.256,0-2.272,1.012-2.272,2.272c0,1.256,1.012,2.272,2.272,2.272h172.652
				c6.912,0,12.532,5.62,12.532,12.532v24.896c0,1.256,1.016,2.272,2.272,2.272c1.256,0,2.272-1.012,2.272-2.272V92.9
				C327.591,83.484,319.935,75.824,310.519,75.824z"/>
			<path d="M64.411,238.264c0.3,0,0.604-0.06,0.896-0.184l37.368-16.012c1.152-0.496,1.684-1.828,1.192-2.98
				c-0.5-1.152-1.836-1.684-2.98-1.192l-37.368,16.012c-1.152,0.496-1.684,1.828-1.192,2.98
				C62.695,237.752,63.531,238.264,64.411,238.264z"/>
			<path d="M97.555,238.164c0.348,0.896,1.204,1.444,2.112,1.444c0.276,0,0.552-0.048,0.828-0.156l20.032-7.824
				c1.164-0.456,1.74-1.768,1.284-2.94c-0.448-1.164-1.768-1.744-2.94-1.288l-20.028,7.824C97.675,235.68,97.099,237,97.555,238.164
				z"/>
			<path d="M91.547,238.076l-21.48,8.384c-1.164,0.456-1.744,1.776-1.284,2.94c0.348,0.896,1.204,1.444,2.112,1.444
				c0.276,0,0.552-0.048,0.824-0.156l21.48-8.388c1.164-0.456,1.744-1.768,1.288-2.94C94.035,238.196,92.715,237.62,91.547,238.076z
				"/>
		</g>
	</g>
</g>
<g>
</g>
<g>
</g>
<g>
</g>
<g>
</g>
<g>
</g>
<g>
</g>
<g>
</g>
<g>
</g>
<g>
</g>
<g>
</g>
<g>
</g>
<g>
</g>
<g>
</g>
<g>
</g>
<g>
</g>
</svg>
